<?xml version="1.0" encoding="UTF-8"?>
<svg width="200" height="300" viewBox="0 0 200 300" xmlns="http://www.w3.org/2000/svg">
    <!-- Capuchon noir mat -->
    <rect x="70" y="20" width="60" height="70" rx="8" fill="#1a1a1a"/>
    
    <!-- Col du flacon -->
    <rect x="80" y="90" width="40" height="15" fill="#6b1021"/>
    
    <!-- Corps du flacon - plus élancé -->
    <path d="M60 105 Q60 120 40 140 L40 250 C40 280 160 280 160 250 L160 140 Q140 120 140 105 C140 95 60 95 60 105" fill="#6b1021"/>
    
    <!-- Reflet -->
    <path d="M70 120 Q70 130 55 150 L55 240 C55 260 80 260 80 240 L80 150" fill="#ffffff20" opacity="0.2"/>
    
    <!-- Base du flacon -->
    <path d="M40 250 C40 280 160 280 160 250" fill="#4a0b17"/>
</svg>